:SAMPLES-PER-SECOND 30
:FRAME-RANGE 1-1700
:FULLY-SPECIFIED
:DEGREES
266
root  25.9718 36.1491 -14.4557 -8.3962 -55.8468 -9.3226
RightUpLeg  -9.67908 -4.95265 14.5288
RightLeg  41.1179 -1.0522 -1.2855
RightFoot  -16.0503 -0.360438 -6.12343
RightToes  -1.16417e-010 0 -3.6325e-017
Spine  23.8416 2.40431 -2.74693
Spine1  3.09642 -4.7501 5.97249
HEad  16.1254 15.4387 -3.44998
LeftShoulder1  2.93075 -6.44992 -23.1902
LeftArm  79.0634 -38.9604 -99.9884
LeftForeArm  4.62616 -14.0535 -14.4183
LeftHand  -0.0170925 5.90315 2.70795
RightShoulder  15.6239 28.4056 42.3479
RightArm  32.7914 10.6092 20.147
RightForeArm  17.6623 26.6908 4.7931
RightHand  1.22484 7.85143 10.3019
LeftUpLeg  -100.145 25.4865 -67.273
LeftLeg  127.44 -1.60931 1.50706
LeftFoot  3.73987 -0.453736 3.25555
LeftToes  1.03528e-008 1.55373e-010 -2.26046e-010
267
root  25.5504 36.0364 -14.5604 -9.23033 -53.2594 -8.51057
RightUpLeg  -9.75895 -4.78928 14.7422
RightLeg  42.0294 -2.95117 -3.1516
RightFoot  -17.4728 -0.409866 -5.44389
RightToes  -1.16417e-010 0 -3.6325e-017
Spine  24.1562 2.45963 -2.89844
Spine1  2.17013 -4.86246 5.87439
HEad  17.2071 15.3827 -3.88813
LeftShoulder1  2.94431 -6.58551 -22.9145
LeftArm  81.7999 -38.3092 -100.588
LeftForeArm  1.79631 -14.9003 -13.8741
LeftHand  -0.0235522 5.61057 2.33839
RightShoulder  14.8061 27.3887 41.4111
RightArm  31.924 9.40416 20.1926
RightForeArm  17.4918 27.9237 5.08093
RightHand  1.25433 7.63536 10.7429
LeftUpLeg  -99.3389 25.0221 -67.8905
LeftLeg  128.159 -2.85983 2.94337
LeftFoot  7.32115 0.0836065 -0.78029
LeftToes  1.03528e-008 1.55373e-010 -2.26046e-010
268
root  25.1052 35.9993 -14.6524 -10.183 -52.2701 -7.32572
RightUpLeg  -9.51922 -3.57546 14.9635
RightLeg  42.5434 -4.54284 -4.75901
RightFoot  -18.5406 -0.452474 -5.19677
RightToes  -1.16417e-010 0 -3.6325e-017
Spine  23.3582 3.07064 -2.72607
Spine1  2.1611 -4.27418 4.84885
HEad  17.91 15.5365 -4.31919
LeftShoulder1  2.89374 -6.46554 -22.7491
LeftArm  89.091 -37.1535 -100.566
LeftForeArm  -5.72619 -17.0092 -12.3277
LeftHand  -0.028348 5.29379 2.18856
RightShoulder  14.3966 27.0317 40.6864
RightArm  31.4375 8.5346 19.9795
RightForeArm  17.3144 28.9912 5.33766
RightHand  1.29657 7.57612 11.1681
LeftUpLeg  -100.592 25.025 -69.133
LeftLeg  129.123 -3.55715 3.63334
LeftFoot  9.78164 0.639274 -3.74913
LeftToes  1.03528e-008 1.55373e-010 -2.26046e-010
269
root  24.6178 35.9973 -14.7049 -11.1953 -51.0517 -6.64777
RightUpLeg  -8.49921 -3.56313 15.1543
RightLeg  42.5984 -5.48185 -5.67976
RightFoot  -19.459 -0.487506 -5.01291
RightToes  -1.16417e-010 0 -3.6325e-017
Spine  23.2338 3.62653 -2.43355
Spine1  1.20601 -3.91393 4.12546
HEad  19.1172 15.8754 -4.58702
LeftShoulder1  2.87957 -6.42564 -22.7214
LeftArm  90.6246 -36.2734 -100.47
LeftForeArm  -7.07679 -17.4991 -11.9002
LeftHand  -0.0278012 5.085 2.31737
RightShoulder  14.182 26.7809 40.3931
RightArm  31.1983 7.87655 19.8391
RightForeArm  18.3258 29.8143 5.47498
RightHand  1.24998 7.41276 10.9015
LeftUpLeg  -101.676 24.7986 -69.9418
LeftLeg  130.097 -3.91063 3.89335
LeftFoot  8.58606 0.45894 -2.91083
LeftToes  1.03528e-008 1.55373e-010 -2.26046e-010
270
root  24.0916 35.979 -14.7311 -11.7142 -49.8949 -6.63295
RightUpLeg  -7.34542 -4.39253 15.6014
RightLeg  42.4379 -5.94146 -6.09114
RightFoot  -20.2924 -0.551999 -5.29523
RightToes  -1.16417e-010 0 -3.6325e-017
Spine  22.8857 4.19337 -2.39408
Spine1  0.29837 -3.89108 4.17069
HEad  20.1767 16.2237 -4.81053
LeftShoulder1  2.8798 -6.42003 -22.7413
LeftArm  88.4459 -36.4285 -100.788
LeftForeArm  -4.64956 -16.875 -12.4017
LeftHand  -0.0295489 5.18437 2.49626
RightShoulder  14.1403 26.7774 40.268
RightArm  30.7385 7.8736 19.9528
RightForeArm  18.9687 29.7007 5.41198
RightHand  1.22271 7.49928 10.5815
LeftUpLeg  -102.681 24.4127 -69.9922
LeftLeg  131.047 -3.5744 3.4013
LeftFoot  5.88321 -0.054305 0.122426
LeftToes  1.03528e-008 1.55373e-010 -2.26046e-010
271
root  23.5734 35.8895 -14.7501 -12.2571 -49.3252 -6.61769
RightUpLeg  -6.30992 -4.77445 16.1658
RightLeg  42.73 -6.24161 -6.44286
RightFoot  -21.41 -0.624411 -5.43975
RightToes  -1.16417e-010 0 -3.6325e-017
Spine  22.4509 4.86265 -2.40786
Spine1  -0.51443 -3.81205 4.12276
HEad  20.7833 16.5372 -4.60966
LeftShoulder1  2.85918 -6.43395 -22.4785
LeftArm  85.509 -37.0396 -101.212
LeftForeArm  -1.92698 -15.97 -13.1238
LeftHand  -0.0325135 5.30703 2.47153
RightShoulder  14.3456 26.9277 40.6837
RightArm  30.0226 8.17971 19.9285
RightForeArm  19.653 29.0765 5.2273
RightHand  1.25004 7.85082 10.5207
LeftUpLeg  -104.026 24.5058 -69.8997
LeftLeg  131.878 -3.13181 2.83968
LeftFoot  4.04528 0.0424194 -0.495796
LeftToes  1.03528e-008 1.55373e-010 -2.26046e-010
272
root  23.132 35.7881 -14.7578 -12.961 -48.9831 -6.37717
RightUpLeg  -5.42484 -4.90105 16.6121
RightLeg  43.1578 -6.72938 -7.01597
RightFoot  -22.304 -0.722157 -5.94712
RightToes  -1.16417e-010 0 -3.6325e-017
Spine  21.9858 5.47462 -2.34384
Spine1  -1.13196 -3.69069 3.80684
HEad  21.1651 16.6104 -4.53144
LeftShoulder1  2.83621 -6.42166 -22.2708
LeftArm  87.5581 -37.1631 -101.453
LeftForeArm  -4.55265 -16.4971 -12.7684
LeftHand  -0.0401534 5.62305 2.19515
RightShoulder  14.4063 26.9947 40.7719
RightArm  29.3379 8.38653 19.8952
RightForeArm  19.65 28.7232 5.14551
RightHand  1.17194 7.54891 10.0883
LeftUpLeg  -105.415 24.4827 -70.3564
LeftLeg  132.537 -3.27707 2.91771
LeftFoot  3.52457 0.028464 -0.38207
LeftToes  1.03528e-008 1.55373e-010 -2.26046e-010
273
root  22.7712 35.6136 -14.7559 -13.7074 -48.4697 -6.311
RightUpLeg  -4.73486 -5.23597 17.0495
RightLeg  44.072 -7.13936 -7.65172
RightFoot  -23.3142 -0.832362 -6.42519
RightToes  -1.16417e-010 0 -3.6325e-017
Spine  21.8524 5.806 -2.06433
Spine1  -1.67065 -3.65442 3.61042
HEad  21.3896 16.9392 -4.49249
LeftShoulder1  2.84019 -6.41406 -22.3366
LeftArm  87.3636 -37.1213 -101.561
LeftForeArm  -4.47861 -16.441 -12.8184
LeftHand  -0.0389078 5.64502 2.33622
RightShoulder  14.2831 26.9487 40.4578
RightArm  29.0875 8.31831 19.9024
RightForeArm  20.2776 28.9222 5.15674
RightHand  1.23741 7.95428 10.3257
LeftUpLeg  -105.898 25.092 -70.4321
LeftLeg  133.288 -2.00709 1.58142
LeftFoot  2.45637 0.265379 -2.31677
LeftToes  1.03528e-008 1.55373e-010 -2.26046e-010
274
root  22.5082 35.4621 -14.8064 -14.6761 -48.0355 -5.73865
RightUpLeg  -4.37855 -5.64246 17.0002
RightLeg  44.9904 -7.32041 -8.08124
RightFoot  -24.1038 -0.921729 -6.7737
RightToes  -1.16417e-010 0 -3.6325e-017
Spine  21.6213 6.0437 -2.27037
Spine1  -1.80857 -3.67199 3.24379
HEad  21.2507 17.4882 -4.63665
LeftShoulder1  2.83889 -6.43723 -22.252
LeftArm  86.3179 -36.9538 -101.671
LeftForeArm  -3.03655 -16.1542 -13.0119
LeftHand  -0.0334711 5.42884 2.52365
RightShoulder  14.1973 26.9513 40.1868
RightArm  28.9624 8.07671 19.8854
RightForeArm  20.3247 29.2615 5.23301
RightHand  1.24874 7.82487 10.5313
LeftUpLeg  -106.052 24.9936 -71.5828
LeftLeg  133.676 -3.30416 2.82173
LeftFoot  1.23283 -0.0216335 0.128693
LeftToes  1.03528e-008 1.55373e-010 -2.26046e-010
275
root  22.4196 35.2598 -14.8411 -15.6157 -47.5798 -5.22623
RightUpLeg  -4.41496 -6.65448 16.513
RightLeg  46.3208 -6.94704 -8.05012
RightFoot  -24.9276 -1.03212 -7.2363
RightToes  -1.16417e-010 0 -3.6325e-017
Spine  21.714 5.99727 -2.2894
Spine1  -1.94348 -3.68659 3.32762
HEad  21.0583 18.1755 -4.81521
LeftShoulder1  2.81419 -6.4353 -21.9941
LeftArm  81.2975 -37.0256 -101.853
LeftForeArm  1.54085 -14.7762 -13.9908
LeftHand  -0.0288973 5.25731 2.72888
RightShoulder  14.1466 26.8676 40.1532
RightArm  29.4612 7.65861 19.8255
RightForeArm  20.1331 29.9995 5.41733
RightHand  1.28089 7.67935 10.9375
LeftUpLeg  -106.444 26.1634 -72.4777
LeftLeg  134.323 -3.06163 2.52191
LeftFoot  1.04766 -0.0231066 0.154542
LeftToes  1.03528e-008 1.55373e-010 -2.26046e-010
276
root  22.5016 35.103 -14.8315 -16.1003 -46.1192 -4.93948
RightUpLeg  -4.98078 -8.85332 15.4274
RightLeg  47.485 -6.34982 -7.70023
RightFoot  -25.5531 -1.12476 -7.62119
RightToes  -1.16417e-010 0 -3.6325e-017
Spine  21.7693 5.64501 -2.42068
Spine1  -1.92808 -3.90751 4.33327
HEad  20.6611 18.7014 -4.98604
LeftShoulder1  2.74975 -6.3474 -21.5669
LeftArm  77.1005 -36.9655 -101.781
LeftForeArm  5.12811 -13.6085 -14.7321
LeftHand  -0.0265752 5.36756 3.05783
RightShoulder  14.1871 26.6263 40.6417
RightArm  29.3391 7.13291 19.7896
RightForeArm  20.7278 31.049 5.63528
RightHand  1.18989 7.10031 10.6381
LeftUpLeg  -107.111 27.1111 -72.9073
LeftLeg  134.893 -3.27762 2.668
LeftFoot  4.26494 -0.143568 0.858896
LeftToes  1.03528e-008 1.55373e-010 -2.26046e-010
